<svg width="24" height="24" viewBox="0 0 24 24" fill="none" xmlns="http://www.w3.org/2000/svg">
<mask id="mask0" mask-type="alpha" maskUnits="userSpaceOnUse" x="0" y="0" width="24" height="24">
<rect width="24" height="24" fill="#C4C4C4"/>
</mask>
<g mask="url(#mask0)">
</g>
<g clip-path="url(#clip0)">
<path d="M20.5102 16.2102L17.9983 13.6982C17.1012 12.8011 15.576 13.16 15.2172 14.3262C14.948 15.1337 14.0509 15.5822 13.2435 15.4028C11.4493 14.9542 9.02701 12.6217 8.57845 10.7377C8.30931 9.93027 8.84759 9.03314 9.655 8.76404C10.8213 8.40519 11.1801 6.88007 10.283 5.98295L7.77104 3.47099C7.05334 2.843 5.97678 2.843 5.3488 3.47099L3.64426 5.17553C1.93972 6.96978 3.82368 11.7246 8.04018 15.941C12.2567 20.1575 17.0114 22.1313 18.8057 20.337L20.5102 18.6324C21.1383 17.9147 21.1383 16.8382 20.5102 16.2102Z" fill="white"/>
</g>
<defs>
<clipPath id="clip0">
<rect width="18" height="18" fill="white" transform="translate(3 3)"/>
</clipPath>
</defs>
</svg>
